{"title":"The.Dark.Knight.Rises.2012.BRRip.XviD.AC3-Atilla82","uid":7857525,"size":1875751003,"categoryP":"video","categoryS":"movies","magnet":"?xt=urn:btih:a9af4915bddf620d5f2265d409d2cba8c03936e0&amp;dn=The.Dark.Knight.Rises.2012.BRRip.XviD.AC3-Atilla82&amp;tr=udp%3A%2F%2Ftracker.openbittorrent.com%3A80&amp;tr=udp%3A%2F%2Fopen.demonii.com%3A1337&amp;tr=udp%3A%2F%2Ftracker.coppersurfer.tk%3A6969&amp;tr=udp%3A%2F%2Fexodus.desync.com%3A6969","seeders":1,"leechers":0,"uploader":"Atilla82","files":4,"time":1353811576,"description":"The.Dark.Knight.Rises.2012.BRRip.XviD.AC3-Atilla82\n\n\n\n &lt;a href=&quot;\nhttp://www.imdb.com/title/tt1345836/&quot; rel=&quot;nofollow&quot; target=&quot;_NEW&quot;&gt;\nhttp://www.imdb.com/title/tt1345836/&lt;/a&gt;\n\n\nEight years on, a new terrorist leader, Bane, \noverwhelms Gotham's finest, and the Dark Knight \nresurfaces to protect a city that has branded \nhim an enemy.\n\n\nsubtitles: \nArab, Chinese, Croatian, Czech, Danish, English, \nSpanish, Farsi, Finnish, French, Greek, Hebrew, Italian, \nDutch, Polish, Portuguese, Thai, Turkish (.srt)\n\n\n\nGeneral\nComplete name : The.Dark.Knight.Rises.2012.BRRip.XviD.AC3-Atilla82.avi\nFormat : AVI\nFormat/Info : Audio Video Interleave\nFile size : 1.74 GiB\nDuration : 2h 44mn\nOverall bit rate : 1 518 Kbps\nWriting application : VirtualDubMod 1.5.10.2 (build 2540/release)\nWriting library : VirtualDubMod build 2540/release\n\nVideo\nID : 0\nFormat : MPEG-4 Visual\nFormat profile : Advanced Simple@L5\nFormat settings, BVOP : 4\nFormat settings, QPel : No\nFormat settings, GMC : No warppoints\nFormat settings, Matrix : Default (H.263)\nMuxing mode : Packed bitstream\nCodec ID : XVID\nCodec ID/Hint : XviD\nDuration : 2h 44mn\nBit rate : 1 060 Kbps\nWidth : 720 pixels\nHeight : 400 pixels\nDisplay aspect ratio : 16:9\nFrame rate : 23.976 fps\nColor space : YUV\nChroma subsampling : 4:2:0\nBit depth : 8 bits\nScan type : Progressive\nCompression mode : Lossy\nBits/(Pixel*Frame) : 0.154\nStream size : 1.22 GiB (70%)\nWriting library : XviD 64\n\nAudio\nID : 1\nFormat : AC-3\nFormat/Info : Audio Coding 3\nMode extension : CM (complete main)\nFormat settings, Endianness : Big\nCodec ID : 2000\nDuration : 2h 44mn\nBit rate mode : Constant\nBit rate : 448 Kbps\nChannel(s) : 6 channels\nChannel positions : Front: L C R, Side: L R, LFE\nSampling rate : 48.0 KHz\nBit depth : 16 bits\nCompression mode : Lossy\nStream size : 527 MiB (30%)\nAlignment : Split accross interleaves\nInterleave, duration : 42 ms (1.00 video frame)\nInterleave, preload duration : 500 ms\n\n\n\nSCREENSHOTS &lt;a href=&quot;\nhttp://www.pohrani.com/f/3i/W4/2jqx0p2s/screenshots.jpg&quot; rel=&quot;nofollow&quot; target=&quot;_NEW&quot;&gt;\nhttp://www.pohrani.com/f/3i/W4/2jqx0p2s/screenshots.jpg&lt;/a&gt;\n\n\n","torrent":{"xt":"urn:btih:a9af4915bddf620d5f2265d409d2cba8c03936e0","amp;dn":"The.Dark.Knight.Rises.2012.BRRip.XviD.AC3-Atilla82","amp;tr":["udp%3A%2F%2Ftracker.openbittorrent.com%3A80","udp%3A%2F%2Fopen.demonii.com%3A1337","udp%3A%2F%2Ftracker.coppersurfer.tk%3A6969","udp%3A%2F%2Fexodus.desync.com%3A6969"],"infoHash":"a9af4915bddf620d5f2265d409d2cba8c03936e0","infoHashBuffer":{"type":"Buffer","data":[169,175,73,21,189,223,98,13,95,34,101,212,9,210,203,168,192,57,54,224]},"announce":[],"urlList":[]}}